<?xml version="1.0" encoding="utf-8"?>
<!-- Generator: Adobe Illustrator 28.0.0, SVG Export Plug-In . SVG Version: 6.00 Build 0)  -->
<svg version="1.1" xmlns="http://www.w3.org/2000/svg" xmlns:xlink="http://www.w3.org/1999/xlink" x="0px" y="0px"
	 viewBox="0 0 476.7 546.1" style="enable-background:new 0 0 476.7 546.1;" xml:space="preserve">
<style type="text/css">
	.st0{fill:#FFFFFF;}
	.st1{fill:#FF6000;}
	.st2{fill:#FFAB7D;}
	.st3{fill:#F9925A;}
</style>
<g id="Bg">
</g>
<g id="Object">
	<polygon class="st0" points="271.1,355.3 277.7,347.9 264.3,347.9 	"/>
	<path class="st1" d="M391.3,439.9h-74.2c-3.1,0-6.1,1.2-8.2,3.4c-2.2,2.2-3.4,5.2-3.4,8.2v71.2H23.3V23.3h368v195.4l23.3-26.5V11.7
		c0-3.1-1.2-6.1-3.4-8.2C409.1,1.2,406.1,0,403,0H11.7C8.6,0,5.6,1.2,3.4,3.4C1.2,5.6,0,8.6,0,11.7v522.8c0,3.1,1.2,6.1,3.4,8.2
		c2.2,2.2,5.2,3.4,8.2,3.4h320c3.1,0,6-1.2,8.2-3.4l36-35.7l0,0l35.3-35.5c2.2-2.2,3.4-5.2,3.4-8.2V256l-23.3,26.5V439.9z
		 M328.8,523.2v-60h62.1L328.8,523.2z"/>
	<polygon class="st0" points="328.8,523.2 390.9,463.3 328.8,463.3 	"/>
	<g>
		<rect x="107.1" y="141" class="st2" width="240.4" height="34.6"/>
		<rect x="66.1" y="198.4" class="st2" width="281.5" height="34.6"/>
		<polygon class="st2" points="66.1,255.8 66.1,290.5 328.2,290.5 347.6,268.4 347.6,255.8 		"/>
		<path class="st2" d="M66.1,313.2v34.6h141l-8.4-9.1l-10.3-11.2c-1.7-1.9-2-4.7-0.7-6.9c1.1-1.8,3-2.8,5-2.8l1.4,0.2l53.5,13.2
			c1.1,0.3,2.1,0.9,2.9,1.7l13.8,15.1h13.4l29.9-34v-0.7H66.1z"/>
	</g>
	<path class="st3" d="M474.8,178.9l-22.9-20.2c-1.1-0.9-2.4-1.5-3.8-1.5l-0.4,0c-1.5,0.1-3,0.8-4,2l-29,33l-23.3,26.5l-43.7,49.7
		l-19.4,22l-20.6,23.4l-29.9,34l-6.6,7.5l-6.9-7.5l-13.8-15.1c-0.8-0.8-1.8-1.4-2.9-1.7L194,317.9l-1.4-0.2c-2,0-3.9,1.1-5,2.8
		c-1.3,2.2-1,5,0.7,6.9l10.3,11.2l8.4,9.1l48.8,53.2c4,4.3,9.6,6.8,15.5,6.8c6.2-0.1,11.9-2.7,15.8-7.1l104.1-118.3l23.3-26.5
		l60.6-68.9C477.4,184.7,477.2,181,474.8,178.9z"/>
</g>
</svg>
