<?xml version="1.0" encoding="utf-8"?>
<!-- Generator: Adobe Illustrator 28.0.0, SVG Export Plug-In . SVG Version: 6.00 Build 0)  -->
<svg version="1.1" id="Layer_1" xmlns="http://www.w3.org/2000/svg" xmlns:xlink="http://www.w3.org/1999/xlink" x="0px" y="0px"
	 viewBox="0 0 2877.3 2433.8" style="enable-background:new 0 0 2877.3 2433.8;" xml:space="preserve">
<style type="text/css">
	.st0{fill:#5DFCA0;}
	.st1{fill:#976CFF;}
	.st2{opacity:0.3;}
	.st3{fill:#000072;}
	.st4{opacity:0.55;}
	.st5{fill:#FFFFFF;}
	.st6{fill:#19AFF9;}
	.st7{opacity:0.65;}
	.st8{fill:#262F6A;}
	.st9{fill:#B5B4BF;}
	.st10{fill:none;stroke:#000072;stroke-width:35;stroke-linecap:round;stroke-linejoin:round;stroke-miterlimit:10;}
	.st11{opacity:0.25;}
	.st12{fill:#FFBE06;}
	.st13{fill:#FE4A27;}
	.st14{fill:#FFDC9C;}
	.st15{fill:#390075;}
</style>
<g>
	<g>
		<g>
			<circle class="st0" cx="1529.6" cy="1170.8" r="1129.7"/>
		</g>
		<g>
			<g>
				<g>
					<path class="st1" d="M2417.8,630.6l-287.7,1211.6l-37.9,159.4l-58.5,246.4c-27.9,117.5-145.8,190.2-263.4,162.2L765.8,2171.8
						c-117.5-27.9-190.2-145.8-162.2-263.4L906.7,631.8L987.7,291c3.1-13.1,7.4-25.8,12.7-37.7c41.6-94.8,146.3-149.3,250.7-124.5
						l1004.5,238.5C2373,395.2,2445.7,513.1,2417.8,630.6z"/>
				</g>
				<g class="st2">
					<path class="st3" d="M2415.9,625l-287.6,1211.6l-37.9,159.4l-58.6,246.5c-27.9,117.5-145.8,190.1-263.4,162.2L763.9,2166.2
						c-69.1-16.5-122.8-64-149.5-124.3c4.5,5.1,9.1,10.1,14,14.7c-7.6-22.7-4-42-4-42c209-50.5,330.5-257.2,330.5-257.2l108.4,177.6
						l720.1,168.2L1041.9,1991c-72.2,102.1-184.9,128.3-254.1,134.3l945.6,224.5c117.6,27.9,235.5-44.7,263.4-162.2l58.6-246.5
						l37.9-159.4L2380.9,570c11.5-48.4,5.9-96.8-12.7-139C2412.8,482.5,2432.8,553.8,2415.9,625z"/>
				</g>
				<g class="st4">
					<path class="st5" d="M2398,471.4c-28.7-31.7-66.8-55.3-111.5-66L1281.8,166.9c-117.5-27.9-235.4,44.8-263.3,162.3L634.4,1946.6
						c-13.4,56.6-3.5,113.4,23.5,160.1c-46.7-51.6-68-124.6-50.7-197.4L991.3,291.8c27.9-117.5,145.8-190.2,263.3-162.2
						l1004.6,238.6C2320.1,382.6,2368.9,421.2,2398,471.4z"/>
				</g>
				<g>
					<path class="st3" d="M1820.9,2433.8c-18,0-36.3-2.1-54.6-6.4L761.7,2188.8c-126.7-30.1-205.3-157.7-175.2-284.4L970.6,286.9
						c14.6-61.4,52.2-113.4,105.9-146.5c53.7-33.1,117.1-43.3,178.5-28.7l1004.6,238.6c61.4,14.6,113.4,52.2,146.5,105.9
						c33.1,53.7,43.3,117.1,28.7,178.5l-384.1,1617.5C2024.9,2360.6,1927.8,2433.8,1820.9,2433.8z M1774.4,2393.3
						c107.9,25.6,216.6-41.3,242.3-149.3l384.1-1617.5c12.4-52.3,3.7-106.3-24.5-152c-28.2-45.8-72.5-77.8-124.8-90.2L1246.9,145.7
						c-52.3-12.4-106.3-3.7-152,24.5c-45.8,28.2-77.8,72.5-90.2,124.8L620.5,1912.5c-25.6,107.9,41.3,216.6,149.3,242.3
						L1774.4,2393.3z"/>
				</g>
				<g>
					<path class="st6" d="M997.4,1548.8c0,270.7-219.4,490-490,490c-49.5,0-97.3-7.4-142.3-21.1h-0.1L48,2106.7l87.4-239.1
						c-73.6-85.6-118-197-118-318.8c0-270.6,219.3-489.9,489.9-489.9S997.4,1278.2,997.4,1548.8z"/>
				</g>
				<g class="st7">
					<path class="st5" d="M717,1105.9c-49.6-17-103-26.2-158.4-26.2c-270.6,0-489.9,219.3-489.9,489.9c0,121.8,44.4,233.2,118,318.9
						l-73,199.8L48,2106.7l87.4-239.1c-73.6-85.6-118-197.1-118-318.9c0-270.6,219.3-489.9,490-489.9
						C582.4,1058.9,653.4,1075.7,717,1105.9z"/>
				</g>
				<g class="st2">
					<path class="st3" d="M997.4,1548.8c0,270.7-219.4,490-490,490c-49.5,0-97.2-7.4-142.3-21.1h-0.1l-317.1,89l32.4-88.6
						l247.2-81.2h0c45.6,11.7,93.6,17,143.1,14.8c270.3-11.9,479.9-240.7,468-511.1c-3.3-74.5-23-144.4-55.5-206.2
						C954.5,1319.5,997.4,1429.1,997.4,1548.8z"/>
				</g>
				<g>
					<path class="st3" d="M48,2124.2c-4.8,0-9.5-2-12.8-5.6c-4.5-4.8-5.8-11.7-3.6-17.9l83.9-229.5C41,1780.6,0,1666.6,0,1548.8
						c0-279.8,227.6-507.4,507.4-507.4c279.8,0,507.5,227.6,507.5,507.4c0,279.8-227.7,507.5-507.5,507.5
						c-48.5,0-96.4-6.8-142.5-20.3l-312.2,87.6C51.2,2124,49.6,2124.2,48,2124.2z M507.4,1076.3c-260.5,0-472.4,211.9-472.4,472.4
						c0,112.9,40.4,222.1,113.7,307.5c4.1,4.8,5.3,11.5,3.2,17.4l-75.7,207l284.2-79.7c3.2-0.9,6.7-0.9,9.9,0.1
						c44.3,13.5,90.4,20.3,137.2,20.3c260.5,0,472.5-212,472.5-472.5C979.9,1288.3,768,1076.3,507.4,1076.3z"/>
				</g>
				<g>
					<path class="st5" d="M1121.8,343.9L833.1,1559.6l222.5,364.7l806.8,191.6c31.1,7.4,62.3-11.8,69.7-43l345.5-1454.6
						L1121.8,343.9z"/>
					<path class="st3" d="M1875.9,2120c-4.7,0-9.4-0.5-14.1-1.7L1054,1926.5l-223.6-366.4l0.2-1l289.3-1218.2l2.4,0.6l1158.2,275
						l-0.6,2.4l-345.5,1454.6c-3.7,15.7-13.3,29-27.1,37.5C1897.8,2117,1886.9,2120,1875.9,2120z M1057.1,1922.1l805.8,191.4
						c14.4,3.4,29.3,1,41.9-6.7c12.6-7.8,21.4-20,24.8-34.4l344.9-1452.2L1123.7,346.9L835.7,1559.2L1057.1,1922.1z"/>
				</g>
				<g>
					<path class="st3" d="M1875.9,2135.5c-5.9,0-11.8-0.7-17.7-2.1l-806.8-191.6c-4.7-1.1-8.7-4-11.2-8.1L817.7,1569
						c-2.5-4.1-3.2-8.9-2.1-13.5l288.7-1215.8c1.1-4.6,4-8.7,8.1-11.2c4.1-2.5,9-3.3,13.6-2.2l1155.7,274.5c4.6,1.1,8.7,4,11.2,8.1
						c2.5,4.1,3.3,9,2.2,13.6l-345.5,1454.6c-4.7,19.7-16.8,36.4-34,47.1C1903.4,2131.7,1889.8,2135.5,1875.9,2135.5z M1067,1908.5
						l799.5,189.9c10.4,2.5,21.1,0.7,30.2-4.8s15.4-14.4,17.9-24.8l341.3-1437.1L1135.1,365.5l-282.9,1191L1067,1908.5z"/>
				</g>
				<g>
					<path class="st3" d="M1055.5,1941.8c-6,0-11.7-3.1-14.9-8.4l-222.5-364.7c-3.7-6-3.4-13.7,0.8-19.4c4.1-5.7,11.3-8.4,18.2-6.7
						l215,51.1c25.3,6,46.7,21.5,60.3,43.6s17.8,48.2,11.8,73.5l-51.7,217.6c-1.6,6.9-7.3,12.1-14.3,13.2
						C1057.4,1941.7,1056.5,1941.8,1055.5,1941.8z M869.9,1586.4l178.5,292.5l41.9-176.3c3.8-16.2,1.2-32.9-7.6-47
						c-8.7-14.1-22.4-24.1-38.6-27.9L869.9,1586.4z"/>
				</g>
				<g class="st2">
					<path class="st8" d="M830.7,1562l222.5,364.7l51.7-217.6c10.2-42.8-16.3-85.8-59.1-96L830.7,1562z"/>
					<path class="st3" d="M1054.3,1933.1l-228.8-375l220.9,52.5c21.4,5.1,39.5,18.2,51,36.9c11.5,18.7,15.1,40.8,10,62.1
						L1054.3,1933.1z M836,1565.8l216.2,354.4l50.3-211.7c4.8-20.1,1.4-40.8-9.4-58.3c-10.8-17.6-27.8-29.9-47.9-34.6L836,1565.8z"
						/>
				</g>
				<g class="st2">
					<path class="st3" d="M1245.4,1817.8l-34,143.4l-73.9-18l-77.4-18.8l18-78.6l32.5-142l75.7,18
						C1229.1,1732,1255.6,1774.9,1245.4,1817.8z"/>
				</g>
				<g class="st2">
					
						<rect x="1082.3" y="520.6" transform="matrix(-0.9729 -0.2311 0.2311 -0.9729 3168.033 1529.6622)" class="st3" width="1182.5" height="117.5"/>
				</g>
				<g>
					<path class="st9" d="M2310.3,524.1c-24.8-40.4-65.1-71.2-114.8-83l-116.5-27.7c-138.7-32.9-188.6-98.8-176.5-249.2
						c10.3-64.9-31-127.8-96-143.2c-61.7-14.7-123.5,18.5-146.7,75.4c-0.1,0.3-0.3,0.6-0.4,0.9c-57.3,146.7-131.6,185.2-273,151.6
						l-114.7-27.2C1172,198,1072.3,259.5,1048.6,359l1284.1,305C2344.6,614.2,2335.1,564.4,2310.3,524.1z M1755.1,240.1
						c-33.2-7.9-53.7-41.1-45.8-74.3c7.9-33.2,41.1-53.7,74.3-45.8c33.2,7.9,53.7,41.1,45.8,74.3
						C1821.5,227.5,1788.3,248,1755.1,240.1z"/>
					<path class="st3" d="M2334.6,666.9l-2.4-0.6L1045.6,360.8l0.6-2.4c23.9-100.7,125.2-163.1,225.9-139.2l114.7,27.2
						C1528,280,1601.2,239.3,1657,96.4l0.4-1c24.2-59.4,87.1-91.7,149.6-76.9c65.4,15.5,108.4,79.7,97.8,146
						c-11.8,146.5,35.5,213.4,174.7,246.4l116.5,27.7c48.8,11.6,90.1,41.5,116.4,84.2v0c26.3,42.6,34.4,93,22.8,141.7L2334.6,666.9z
						 M1051.7,357.1l1279.2,303.8c10.4-46.7,2.4-94.7-22.8-135.5v0c-25.6-41.5-65.8-70.6-113.3-81.9l-116.5-27.7
						c-142.1-33.8-190.5-102-178.5-251.9c10.2-64-31.1-125.6-94-140.6c-59.1-14-120.9,17.7-143.8,73.9l-0.4,0.9
						c-56.9,145.8-131.7,187.3-275.9,153l-114.7-27.2C1173.8,201,1076,260.6,1051.7,357.1z M1769.4,244.3c-4.9,0-9.9-0.6-14.8-1.7
						c-16.7-4-30.8-14.2-39.8-28.8c-9-14.6-11.8-31.8-7.8-48.5c8.2-34.4,42.9-55.8,77.3-47.6c34.4,8.2,55.8,42.9,47.6,77.3
						C1824.9,224.4,1798.4,244.3,1769.4,244.3z M1769.4,120.9c-26.8,0-51.1,18.3-57.6,45.5c-3.7,15.4-1.1,31.3,7.2,44.7
						c8.3,13.5,21.3,22.9,36.7,26.5c31.8,7.6,63.7-12.2,71.3-43.9c7.5-31.8-12.2-63.7-43.9-71.3
						C1778.5,121.4,1773.9,120.9,1769.4,120.9z"/>
				</g>
				<g class="st4">
					<path class="st5" d="M1826.2,156.1c5,11.7,6.4,25,3.2,38.3c-7.9,33.2-41.1,53.7-74.3,45.8c-7-1.7-13.5-4.5-19.2-8.2
						c7.4,17.4,22.7,31.3,42.6,36c33.2,7.9,66.4-12.6,74.3-45.8C1859,196,1847.6,169.8,1826.2,156.1z M1806.4,20.9
						c-61.7-14.7-123.6,18.5-146.8,75.4c-0.1,0.3-0.2,0.6-0.4,0.9C1602,244,1527.7,282.5,1386.2,248.9l-114.7-27.2
						C1172,198,1072.3,259.5,1048.7,359l29.6,7c31.7-87.1,124.3-138.5,216.6-116.5l114.7,27.2c141.4,33.6,215.8-4.9,273-151.6
						c0.1-0.3,0.3-0.6,0.4-0.9c23.2-56.9,85-90,146.7-75.4c21.2,5,39.9,15.1,55.1,28.7C1867.8,50,1840.4,29,1806.4,20.9z"/>
				</g>
				<g>
					<path class="st10" d="M2310.3,524.1c-24.8-40.4-65.1-71.2-114.8-83l-116.5-27.7c-138.7-32.9-188.6-98.8-176.5-249.2
						c10.3-64.9-31-127.8-96-143.2c-61.7-14.7-123.5,18.5-146.7,75.4c-0.1,0.3-0.3,0.6-0.4,0.9c-57.3,146.7-131.6,185.2-273,151.6
						l-114.7-27.2C1172,198,1072.3,259.5,1048.6,359l1284.1,305C2344.6,614.2,2335.1,564.4,2310.3,524.1z M1755.1,240.1
						c-33.2-7.9-53.7-41.1-45.8-74.3c7.9-33.2,41.1-53.7,74.3-45.8c33.2,7.9,53.7,41.1,45.8,74.3
						C1821.5,227.5,1788.3,248,1755.1,240.1z"/>
				</g>
				<g class="st11">
					<path class="st5" d="M1877.1,441.3c-4.5,19-79,17.7-166.3-3.1s-154.4-53-149.9-72s75.3-2.2,162.6,18.5
						C1810.8,405.5,1881.6,422.3,1877.1,441.3z"/>
				</g>
				<g>
					<path class="st10" d="M1188.3,675.5l606.9,144.1"/>
				</g>
				<g>
					<path class="st10" d="M1031.9,1384l606.9,144.1"/>
				</g>
				<g>
					<path class="st10" d="M1140.4,839.3l791,192.4"/>
				</g>
				<g>
					<g>
						<path class="st1" d="M447.9,1636c0-39.5,9.4-74.7,46.3-127c42.1-60.1,53.2-97,53.2-142.5c0-42.9-17.2-59.2-47.2-59.2
							c-30,0-47.2,16.3-47.2,59.2v45.8c0,10.7-8.7,19.4-19.4,19.4h-50.5c-10.7,0-19.4-8.7-19.4-19.4v-39.8
							c0-96.1,46.4-151.1,138.2-151.1s139.9,54.9,139.9,151.1c0,52.4-16.3,96.1-62.7,157.9c-36.9,49.8-48.9,79-48.9,109v7
							c0,14.1-11.5,25.6-25.6,25.6h-31.2c-14.1,0-25.6-11.5-25.6-25.6V1636z M468.8,1739.8h40.6c13.9,0,25.2,11.3,25.2,25.2v40.6
							c0,13.9-11.3,25.2-25.2,25.2h-40.6c-13.9,0-25.2-11.3-25.2-25.2V1765C443.6,1751.1,454.9,1739.8,468.8,1739.8z"/>
					</g>
				</g>
				<g class="st7">
					<g>
						<path class="st5" d="M501.9,1221.4c-91.8,0-138.2,54.9-138.2,151v39.9c0,10.7,8.7,19.4,19.5,19.4h19.1
							c-4.1-3.6-6.7-8.8-6.7-14.7v-39.8c0-96.1,46.4-151.1,138.2-151.1c4.4,0,8.7,0.1,12.9,0.4
							C533.1,1223.1,518.2,1221.4,501.9,1221.4z M526,1513.7c42-60,53.2-97,53.2-142.5c0-42.9-17.2-59.2-47.2-59.2
							c-2.6,0-5.1,0.1-7.4,0.4c14.8,7.7,22.9,24.7,22.9,54.1c0,45.5-11.1,82.4-53.2,142.5c-36.9,52.4-46.4,87.6-46.4,127v10.5
							c0,14.1,11.4,25.6,25.6,25.6h16.9c-6.5-4.7-10.8-12.3-10.8-20.9v-10.4C479.6,1601.2,489.1,1566,526,1513.7z M500.5,1744.6H524
							c-4.1-3-9.1-4.7-14.6-4.7h-40.6c-13.9,0-25.2,11.2-25.2,25.1v40.7c0,13.9,11.2,25.1,25.2,25.1h17c-6.3-4.5-10.5-12-10.5-20.4
							v-40.6C475.3,1755.9,486.6,1744.6,500.5,1744.6z"/>
					</g>
				</g>
				<g>
					<path class="st10" d="M1104.1,1013l791,192.4"/>
				</g>
				<g>
					<g>
						<path class="st3" d="M509.4,1848.3h-40.6c-23.5,0-42.7-19.1-42.7-42.7V1765c0-23.5,19.1-42.7,42.7-42.7h40.6
							c23.5,0,42.7,19.1,42.7,42.7v40.6C552.1,1829.2,532.9,1848.3,509.4,1848.3z M468.8,1757.3c-4.2,0-7.7,3.4-7.7,7.7v40.6
							c0,4.2,3.4,7.7,7.7,7.7h40.6c4.2,0,7.7-3.4,7.7-7.7V1765c0-4.2-3.4-7.7-7.7-7.7H468.8z M504.7,1689.5h-31.2
							c-23.8,0-43.1-19.3-43.1-43.1V1636c0-40.1,8.4-78.8,49.5-137.1c42-60.1,50-92.9,50-132.4c0-38.5-14.1-41.7-29.7-41.7
							c-15.7,0-29.7,3.2-29.7,41.7v45.8c0,20.3-16.6,36.9-36.9,36.9h-50.5c-20.3,0-36.9-16.6-36.9-36.9v-39.8
							c0-107.1,56.7-168.6,155.7-168.6c100,0,157.4,61.4,157.4,168.6c0,57.7-18.5,105-66.2,168.4c-37.8,51-45.4,75.5-45.4,98.5v7
							C547.8,1670.2,528.5,1689.5,504.7,1689.5z M500.3,1289.7c29.5,0,64.7,13.3,64.7,76.7c0,53.1-14.8,93.1-56.4,152.5
							c-36,51-43.2,82.6-43.2,117v10.4c0,4.5,3.6,8.1,8.1,8.1h31.2c4.5,0,8.1-3.6,8.1-8.1v-7c0-35.6,14.2-67.9,52.4-119.4
							c43.2-57.6,59.2-97.5,59.2-147.5c0-88.6-41.2-133.6-122.4-133.6c-80.1,0-120.7,44.9-120.7,133.6v39.8c0,1,0.9,1.9,1.9,1.9
							h50.5c1,0,1.9-0.9,1.9-1.9v-45.8C435.5,1303,470.7,1289.7,500.3,1289.7z"/>
					</g>
				</g>
				<g class="st11">
					<path class="st5" d="M273.8,1604.2c8.5,81.8,16.7,152.8-35.5,158.3c-52.2,5.5-101.4-56.4-110-138.2
						c-8.5-81.8,26.8-152.5,79-157.9C259.5,1460.9,265.3,1522.4,273.8,1604.2z"/>
				</g>
			</g>
			<g>
				<g>
					<path class="st12" d="M2817.4,1949.9l-540.3-684.7c-6.9-8.8-14.6-16.8-22.9-24.1l0,0c-19-16.8-41.4-29.5-65.9-37.2l-143.1-45.2
						l-83.8-26.5c-24.1-7.6-48.2,11.4-46.4,36.6l6.3,87.7l10.7,149.7c1.7,23.3,7.8,46,17.8,66.8l0,0c5.7,12,12.8,23.3,21.1,33.8
						l538.1,682c66.8,84.7,192.7,101.6,277,34.3c41.7-33.3,66.1-80.2,71.9-129.5C2863.8,2044,2850.7,1992.2,2817.4,1949.9z"/>
				</g>
				<g>
					<path class="st13" d="M2817.4,1949.9l-49.4-62.6l-306.1,241.6l47.2,59.9c66.8,84.7,192.7,101.6,277,34.3
						c41.7-33.3,66.1-80.2,71.9-129.5C2863.8,2044,2850.7,1992.2,2817.4,1949.9z"/>
					<path class="st3" d="M2666.6,2267c-7.8,0-15.6-0.4-23.4-1.3c-53.5-6.1-103.1-33.6-136-75.4l-48.8-61.8l310.1-244.6l50.9,64.5
						c32.7,41.4,47.3,93,41.1,145.5c-6.1,51.9-32,98.5-72.8,131.1C2753.2,2252.4,2710.9,2267,2666.6,2267z M2465.4,2129.3l45.7,57.9
						c32.1,40.7,80.5,67.5,132.7,73.5c51.4,5.9,101.4-8.2,140.8-39.7c39.8-31.8,65-77.2,71-127.8c6-51.1-8.2-101.4-40.1-141.8
						l-47.8-60.6L2465.4,2129.3z"/>
				</g>
				<g>
					<path class="st14" d="M2254.2,1241.1L2254.2,1241.1c-19.1-16.8-41.4-29.5-65.9-37.2l-143.1-45.2l-83.8-26.5
						c-24.1-7.6-48.2,11.4-46.4,36.6l6.3,87.7l10.7,149.7c1.7,23.3,7.8,46,17.8,66.8l0,0c39.7,23.4,106.3,17,110.5-51.5
						c78,31.6,128.5-14.7,116.4-91.9C2233.4,1350,2276.5,1294,2254.2,1241.1z"/>
					<path class="st15" d="M1994.9,1487.9c-15.8,0-32.2-4.3-46.4-12.7l-1.1-1.2c-10.3-21.3-16.4-44.1-18.1-67.7l-17-237.4
						c-0.9-12.7,4.5-25,14.5-32.9c10-7.9,23.2-10.3,35.4-6.5l226.9,71.8c24.8,7.8,47.3,20.6,66.8,37.8l0.7,1
						c11.5,27.2,6.6,57.7-12.3,77.6c-16.4,17.3-40.2,23.1-64.4,15.9c4.8,37.1-5,68.2-27,85.7c-22.3,17.7-54.2,19.8-90.3,6.1
						c-3.1,32-19.6,47.3-33.2,54.5C2019.4,1485.2,2007.3,1487.9,1994.9,1487.9z M1951.9,1471c23.7,13.7,53.8,15.4,75.1,4
						c18.4-9.8,29-28.4,30.6-53.8l0.2-3.8l3.5,1.4c35.6,14.4,66.9,13,88.3-4c21.3-16.9,30.2-47.9,24.4-85l-0.7-4.5l4.3,1.6
						c23.5,8.5,47,3.6,62.8-13.1c17.3-18.2,21.8-46.2,11.4-71.3c-18.6-16.3-40.4-28.6-64.4-36.2l-226.9-71.8
						c-10.6-3.3-21.7-1.3-30.4,5.6c-8.7,6.9-13.3,17.2-12.5,28.3l17,237.4C1936.3,1428.6,1942.1,1450.5,1951.9,1471z"/>
				</g>
				<g class="st2">
					<path class="st3" d="M2817.4,1949.9l-540.3-684.7c-6.9-8.8-14.6-16.8-22.9-24.1l0,0c-19-16.8-41.4-29.5-65.9-37.2l-143.1-45.2
						l-83.8-26.5c-24.1-7.6-48.2,11.4-46.4,36.6l1.2,17.6l67,21.2l143.1,45.2c24.4,7.7,46.8,20.4,65.9,37.2l0,0
						c8.3,7.2,16,15.3,22.9,24.1l540.3,684.7c33.4,42.3,46.4,94.1,40.6,143.6c-4.4,37-19.3,72.7-44.1,102.3
						c11.9-5.9,23.4-13.1,34.2-21.8c41.7-33.3,66.1-80.2,71.9-129.5C2863.8,2044,2850.7,1992.2,2817.4,1949.9z"/>
				</g>
				<g class="st7">
					<path class="st5" d="M1956.9,1135.6c-0.1-1.6-0.1-3.1,0-4.7c-22.5-4-43.5,14.2-41.9,37.7l6.3,87.7l10.7,149.7
						c1.7,23.3,7.8,46,17.8,66.8l0,0c5.7,12,12.8,23.3,21.1,33.8l538.1,682c66.8,84.7,192.7,101.6,277,34.3
						c6.8-5.5,13.2-11.3,19.1-17.5c-82.8,48.4-193.1,27.6-254.2-49.8l-279.5-354.3c4.3-84.5-70.3-194.9-160.3-203.1l-98.3-124.6
						c-8.3-10.5-15.4-21.9-21.1-33.8l0,0c-10-20.8-16.1-43.4-17.8-66.8l-10.7-149.7L1956.9,1135.6z"/>
				</g>
				<g>
					<path class="st3" d="M2666.6,2282.5c-8.4,0-16.8-0.5-25.2-1.5c-57.6-6.6-110.9-36.2-146.4-81.2l-538.1-682
						c-25.1-31.8-39.9-70-42.8-110.5l-17-237.4c-1.3-17.8,6.3-35,20.3-46c14-11,32.5-14.4,49.5-9l226.9,71.8
						c38.7,12.2,72.4,35.5,97.5,67.3l540.3,684.7c35.2,44.6,51,100.3,44.3,156.9c-6.6,56-34.5,106.2-78.5,141.4
						C2760.1,2266.8,2714.4,2282.5,2666.6,2282.5z M1950.5,1148.4c-3.9,0-7.7,1.3-10.9,3.8c-4.7,3.7-7.1,9.2-6.7,15.2l17,237.4
						c2.4,33.2,14.5,64.6,35.2,90.8l538.1,682c29.6,37.5,74.2,62.2,122.3,67.7c47.3,5.4,93.2-7.5,129.3-36.4
						c36.6-29.2,59.8-71,65.3-117.5c5.5-47-7.6-93.3-36.9-130.4L2263,1276.3c-20.6-26.1-48.3-45.3-80.1-55.3l-226.9-71.8
						C1954.2,1148.7,1952.3,1148.4,1950.5,1148.4z"/>
				</g>
				<g>
					<path class="st9" d="M2672.3,1787.7l-285.6,225.3c-13.3,10.5-15.5,29.7-5.1,43l47.2,59.9c10.5,13.3,29.7,15.5,43,5.1
						l285.6-225.3c13.3-10.5,15.5-29.7,5.1-43l-47.2-59.9C2704.8,1779.5,2685.5,1777.3,2672.3,1787.7z"/>
					<path class="st3" d="M2453,2130.1c-1.3,0-2.6-0.1-3.9-0.2c-8.8-1-16.6-5.4-22.1-12.4l-47.2-59.9c-5.5-6.9-7.9-15.6-6.9-24.4
						c1-8.8,5.4-16.6,12.4-22.1l285.6-225.3c6.9-5.5,15.6-7.9,24.4-6.9c8.8,1,16.6,5.4,22.1,12.4l47.2,59.9
						c5.5,6.9,7.9,15.6,6.9,24.4c-1,8.8-5.4,16.6-12.4,22.1L2473.4,2123C2467.5,2127.6,2460.4,2130.1,2453,2130.1z M2691.2,1783.6
						c-6.3,0-12.4,2.1-17.4,6L2388.2,2015c-5.9,4.7-9.6,11.3-10.5,18.8c-0.9,7.5,1.2,14.8,5.9,20.7l47.2,59.9
						c4.7,5.9,11.3,9.6,18.8,10.5c7.5,0.9,14.8-1.2,20.7-5.9l285.6-225.3c5.9-4.7,9.6-11.3,10.5-18.8c0.9-7.5-1.2-14.8-5.9-20.7
						l-47.2-59.9c-4.7-5.9-11.3-9.6-18.8-10.5C2693.4,1783.7,2692.3,1783.6,2691.2,1783.6z"/>
				</g>
				<g class="st2">
					<path class="st3" d="M2762.5,1852.7l-47.3-59.9c-10.5-13.3-29.7-15.5-43-5.1l-74.6,58.8c13.3-10.5,32.5-8.2,43,5.1l47.3,59.9
						c10.5,13.3,8.2,32.5-5.1,43l74.6-58.8C2770.7,1885.2,2773,1865.9,2762.5,1852.7z"/>
				</g>
				<g class="st7">
					<path class="st5" d="M2422,1985.2l-35.3,27.9c-13.3,10.5-15.5,29.7-5.1,43l47.3,59.9c10.5,13.3,29.7,15.5,43,5.1l35.3-27.9
						c-13.3,10.5-32.5,8.2-43-5.1l-47.3-59.9C2406.5,2014.9,2408.7,1995.7,2422,1985.2z"/>
				</g>
				<g>
					<path class="st3" d="M2453,2145.6c-1.9,0-3.9-0.1-5.8-0.3c-12.9-1.5-24.4-8-32.5-18.2l-47.2-59.9c-8-10.2-11.6-22.9-10.1-35.8
						s8-24.4,18.2-32.5l285.6-225.3c10.2-8,22.9-11.7,35.8-10.1c12.9,1.5,24.4,8,32.5,18.2l47.2,59.9c8,10.2,11.6,22.9,10.1,35.8
						s-8,24.4-18.2,32.5L2483,2135.1C2474.4,2142,2463.9,2145.6,2453,2145.6z M2691.2,1799.1c-2.8,0-5.5,0.9-7.8,2.7l0,0
						l-285.6,225.3c-2.6,2.1-4.3,5.1-4.7,8.4c-0.4,3.3,0.5,6.7,2.6,9.3l47.2,59.9c2.1,2.6,5.1,4.3,8.4,4.7c3.3,0.4,6.7-0.5,9.3-2.6
						l285.6-225.3c2.6-2.1,4.3-5.1,4.7-8.4c0.4-3.3-0.5-6.7-2.6-9.3l-47.2-59.9c-2.1-2.6-5.1-4.3-8.4-4.7
						C2692.2,1799.2,2691.7,1799.1,2691.2,1799.1z M2672.3,1787.7L2672.3,1787.7L2672.3,1787.7z"/>
				</g>
				<g>
					<path class="st3" d="M1994.9,1503.1c-18.5,0-37.7-5-54.2-14.7c-1.8-1.1-3.5-2.5-4.8-4.2c-6.3-7.7-5.1-19.1,2.6-25.3
						c6.2-5.1,14.8-5.3,21.2-1.1c19.1,11,43.7,12.5,60.2,3.7c13.7-7.3,21.3-21.1,22.5-41.2c0.4-5.8,3.5-11,8.4-14.1
						c4.9-3.1,11-3.6,16.4-1.5c30.2,12.3,56.2,11.6,73.1-1.8c16.9-13.4,23.8-39.2,18.8-70.6c-1-6.3,1.4-12.6,6.3-16.7
						c4.9-4,11.6-5.2,17.6-3c17.9,6.5,34.9,3.1,46.6-9.3c13.2-13.9,16.4-35.4,8.4-55c-3.2-7.3-1.4-16.1,5.1-21.3
						c7.7-6.3,19-5.1,25.3,2.6l0,0c1.1,1.3,2,2.8,2.6,4.4c13.8,32.8,7.8,69.7-15.3,94.1c-15.7,16.5-36.7,24.7-59,23.6
						c-0.1,33.7-11.9,61.9-34,79.4c-22.9,18.2-53.6,22.9-88,13.9c-6.1,21.5-19.1,38.3-37.8,48.2
						C2024.4,1499.9,2009.8,1503.1,1994.9,1503.1z"/>
				</g>
				<g>
					<path class="st3" d="M1921.2,1274.4c-8.7,0-16.4-6.4-17.8-15.3c-1.5-9.8,5.2-19,15-20.5c53.5-8.3,89.5-36.7,110-86.8
						c3.8-9.2,14.3-13.6,23.5-9.8c9.2,3.8,13.6,14.3,9.9,23.5c-25.3,62-71.7,98.5-137.9,108.8
						C1923.1,1274.3,1922.2,1274.4,1921.2,1274.4z"/>
				</g>
				<g>
					<path class="st3" d="M2045.2,1158.6l-83.8-26.5c-24-7.6-48.2,11.4-46.4,36.6l6.3,87.7C1981,1247.2,2022.3,1214.6,2045.2,1158.6
						z"/>
				</g>
			</g>
		</g>
	</g>
</g>
</svg>
